<mxfile host="65bd71144e" modified="2020-11-01T12:54:32.986Z" agent="5.0 (Windows NT 10.0; Win64; x64) AppleWebKit/537.36 (KHTML, like Gecko) Code/1.50.1 Chrome/83.0.4103.122 Electron/9.2.1 Safari/537.36" version="13.6.5" etag="bHSFooprTFP2GN05hZem">
    <diagram id="MoMJadGkoSt91WU5q4_A" name="Seite-1">
        <mxGraphModel dx="770" dy="629" grid="0" gridSize="10" guides="1" tooltips="1" connect="1" arrows="1" fold="1" page="1" pageScale="1" pageWidth="827" pageHeight="1169" background="#F4F1DE" math="0" shadow="0">
            <root>
                <mxCell id="0"/>
                <mxCell id="1" parent="0"/>
                <mxCell id="10" style="edgeStyle=orthogonalEdgeStyle;orthogonalLoop=1;jettySize=auto;html=1;labelBackgroundColor=#F4F1DE;strokeColor=#E07A5F;fontColor=#393C56;" edge="1" parent="1" source="2" target="3">
                    <mxGeometry relative="1" as="geometry"/>
                </mxCell>
                <mxCell id="2" value="cvat-frontend" style="whiteSpace=wrap;html=1;fillColor=#F2CC8F;strokeColor=#E07A5F;fontColor=#393C56;rounded=1;" vertex="1" parent="1">
                    <mxGeometry x="354" y="250" width="120" height="60" as="geometry"/>
                </mxCell>
                <mxCell id="27" style="edgeStyle=orthogonalEdgeStyle;orthogonalLoop=1;jettySize=auto;html=1;labelBackgroundColor=#F4F1DE;strokeColor=#E07A5F;fontColor=#393C56;" edge="1" parent="1" source="3" target="26">
                    <mxGeometry relative="1" as="geometry">
                        <Array as="points">
                            <mxPoint x="414" y="450"/>
                            <mxPoint x="494" y="450"/>
                        </Array>
                    </mxGeometry>
                </mxCell>
                <mxCell id="28" style="edgeStyle=orthogonalEdgeStyle;orthogonalLoop=1;jettySize=auto;html=1;labelBackgroundColor=#F4F1DE;strokeColor=#E07A5F;fontColor=#393C56;" edge="1" parent="1" source="3" target="25">
                    <mxGeometry relative="1" as="geometry">
                        <Array as="points">
                            <mxPoint x="414" y="450"/>
                            <mxPoint x="454" y="450"/>
                        </Array>
                    </mxGeometry>
                </mxCell>
                <mxCell id="29" style="edgeStyle=orthogonalEdgeStyle;orthogonalLoop=1;jettySize=auto;html=1;labelBackgroundColor=#F4F1DE;strokeColor=#E07A5F;fontColor=#393C56;" edge="1" parent="1" source="3" target="24">
                    <mxGeometry relative="1" as="geometry"/>
                </mxCell>
                <mxCell id="30" style="edgeStyle=orthogonalEdgeStyle;orthogonalLoop=1;jettySize=auto;html=1;labelBackgroundColor=#F4F1DE;strokeColor=#E07A5F;fontColor=#393C56;" edge="1" parent="1" source="3" target="23">
                    <mxGeometry relative="1" as="geometry">
                        <Array as="points">
                            <mxPoint x="414" y="450"/>
                            <mxPoint x="374" y="450"/>
                        </Array>
                    </mxGeometry>
                </mxCell>
                <mxCell id="31" style="edgeStyle=orthogonalEdgeStyle;orthogonalLoop=1;jettySize=auto;html=1;labelBackgroundColor=#F4F1DE;strokeColor=#E07A5F;fontColor=#393C56;" edge="1" parent="1" source="3" target="22">
                    <mxGeometry relative="1" as="geometry">
                        <Array as="points">
                            <mxPoint x="414" y="450"/>
                            <mxPoint x="334" y="450"/>
                        </Array>
                    </mxGeometry>
                </mxCell>
                <mxCell id="32" style="edgeStyle=orthogonalEdgeStyle;orthogonalLoop=1;jettySize=auto;html=1;labelBackgroundColor=#F4F1DE;strokeColor=#E07A5F;fontColor=#393C56;" edge="1" parent="1" source="3" target="8">
                    <mxGeometry relative="1" as="geometry"/>
                </mxCell>
                <mxCell id="33" style="edgeStyle=orthogonalEdgeStyle;orthogonalLoop=1;jettySize=auto;html=1;labelBackgroundColor=#F4F1DE;strokeColor=#E07A5F;fontColor=#393C56;" edge="1" parent="1" source="3" target="4">
                    <mxGeometry relative="1" as="geometry"/>
                </mxCell>
                <mxCell id="34" style="edgeStyle=orthogonalEdgeStyle;orthogonalLoop=1;jettySize=auto;html=1;labelBackgroundColor=#F4F1DE;strokeColor=#E07A5F;fontColor=#393C56;" edge="1" parent="1" source="3" target="5">
                    <mxGeometry relative="1" as="geometry"/>
                </mxCell>
                <mxCell id="3" value="cvat-backend" style="whiteSpace=wrap;html=1;fillColor=#F2CC8F;strokeColor=#E07A5F;fontColor=#393C56;rounded=1;" vertex="1" parent="1">
                    <mxGeometry x="354" y="350" width="120" height="60" as="geometry"/>
                </mxCell>
                <mxCell id="4" value="redis" style="whiteSpace=wrap;html=1;fillColor=#F2CC8F;strokeColor=#E07A5F;fontColor=#393C56;rounded=1;" vertex="1" parent="1">
                    <mxGeometry x="520" y="310" width="120" height="60" as="geometry"/>
                </mxCell>
                <mxCell id="36" style="edgeStyle=orthogonalEdgeStyle;orthogonalLoop=1;jettySize=auto;html=1;labelBackgroundColor=#F4F1DE;strokeColor=#E07A5F;fontColor=#393C56;" edge="1" parent="1" source="5" target="35">
                    <mxGeometry relative="1" as="geometry"/>
                </mxCell>
                <mxCell id="5" value="postgres" style="whiteSpace=wrap;html=1;fillColor=#F2CC8F;strokeColor=#E07A5F;fontColor=#393C56;rounded=1;" vertex="1" parent="1">
                    <mxGeometry x="520" y="390" width="120" height="60" as="geometry"/>
                </mxCell>
                <mxCell id="11" style="edgeStyle=orthogonalEdgeStyle;orthogonalLoop=1;jettySize=auto;html=1;labelBackgroundColor=#F4F1DE;strokeColor=#E07A5F;fontColor=#393C56;" edge="1" parent="1" source="6" target="2">
                    <mxGeometry relative="1" as="geometry"/>
                </mxCell>
                <mxCell id="6" value="Loadbalancer" style="whiteSpace=wrap;html=1;fillColor=#F2CC8F;strokeColor=#E07A5F;fontColor=#393C56;rounded=1;" vertex="1" parent="1">
                    <mxGeometry x="354" y="150" width="120" height="60" as="geometry"/>
                </mxCell>
                <mxCell id="8" value="nuclio" style="whiteSpace=wrap;html=1;fillColor=#F2CC8F;strokeColor=#E07A5F;fontColor=#393C56;rounded=1;" vertex="1" parent="1">
                    <mxGeometry x="190" y="350" width="120" height="60" as="geometry"/>
                </mxCell>
                <mxCell id="22" value="share" style="shape=datastore;whiteSpace=wrap;html=1;labelPosition=center;verticalLabelPosition=bottom;align=center;verticalAlign=top;fillColor=#F2CC8F;strokeColor=#E07A5F;fontColor=#393C56;rounded=1;" vertex="1" parent="1">
                    <mxGeometry x="322" y="470" width="24" height="40" as="geometry"/>
                </mxCell>
                <mxCell id="23" value="data" style="shape=datastore;whiteSpace=wrap;html=1;labelPosition=center;verticalLabelPosition=bottom;align=center;verticalAlign=top;fillColor=#F2CC8F;strokeColor=#E07A5F;fontColor=#393C56;rounded=1;" vertex="1" parent="1">
                    <mxGeometry x="362" y="470" width="24" height="40" as="geometry"/>
                </mxCell>
                <mxCell id="24" value="logs" style="shape=datastore;whiteSpace=wrap;html=1;labelPosition=center;verticalLabelPosition=bottom;align=center;verticalAlign=top;fillColor=#F2CC8F;strokeColor=#E07A5F;fontColor=#393C56;rounded=1;" vertex="1" parent="1">
                    <mxGeometry x="402" y="470" width="24" height="40" as="geometry"/>
                </mxCell>
                <mxCell id="25" value="models" style="shape=datastore;whiteSpace=wrap;html=1;labelPosition=center;verticalLabelPosition=bottom;align=center;verticalAlign=top;fillColor=#F2CC8F;strokeColor=#E07A5F;fontColor=#393C56;rounded=1;" vertex="1" parent="1">
                    <mxGeometry x="442" y="470" width="24" height="40" as="geometry"/>
                </mxCell>
                <mxCell id="26" value="keys" style="shape=datastore;whiteSpace=wrap;html=1;labelPosition=center;verticalLabelPosition=bottom;align=center;verticalAlign=top;fillColor=#F2CC8F;strokeColor=#E07A5F;fontColor=#393C56;rounded=1;" vertex="1" parent="1">
                    <mxGeometry x="482" y="470" width="24" height="40" as="geometry"/>
                </mxCell>
                <mxCell id="35" value="DB data" style="shape=datastore;whiteSpace=wrap;html=1;labelPosition=center;verticalLabelPosition=bottom;align=center;verticalAlign=top;fillColor=#F2CC8F;strokeColor=#E07A5F;fontColor=#393C56;rounded=1;" vertex="1" parent="1">
                    <mxGeometry x="568" y="470" width="24" height="40" as="geometry"/>
                </mxCell>
            </root>
        </mxGraphModel>
    </diagram>
</mxfile>